# xmcd
#
# Track frame offsets:
#	180
#	17092
#	35494
#	52462
#	64592
#	84656
#	97948
#	117408
#	134105
#	150412
#	168593
#	185901
#	197876
#
# Disc length: 3044 seconds
#
# Revision: 2
# Processed by: cddbd v1.4PL0 Copyright (c) Steve Scherf et al.
# Submitted via: audiograbber 1.82.02
#
DISCID=be0be20d
DTITLE=Hernádi Judit - Levetett blues
DYEAR=1997
DGENRE=Blues
TTITLE0=Levetett Blues
TTITLE1=Valami azt súgja, hogy vége
TTITLE2=Butácska dal
TTITLE3=A jobb  és a bal
TTITLE4=Nincs mese
TTITLE5=Jövök - megyek
TTITLE6=Sohase mondd '97
TTITLE7=A hétfõk városa
TTITLE8=Casablanca
TTITLE9=Szomorú  vasárnap
TTITLE10=Van még csókom
TTITLE11=Szponzor rock
TTITLE12=Bonus track: Sohase mondd '97 - bõvített
EXTD=
EXTT0=
EXTT1=
EXTT2=
EXTT3=
EXTT4=
EXTT5=
EXTT6=
EXTT7=
EXTT8=
EXTT9=
EXTT10=
EXTT11=
EXTT12=
PLAYORDER=
